<?xml version="1.0" standalone="no"?>
<!DOCTYPE svg PUBLIC "-//W3C//DTD SVG 20010904//EN"
 "http://www.w3.org/TR/2001/REC-SVG-20010904/DTD/svg10.dtd">
<svg version="1.0" xmlns="http://www.w3.org/2000/svg"
 width="512.000000pt" height="512.000000pt" viewBox="0 0 512.000000 512.000000"
 preserveAspectRatio="xMidYMid meet">

<g transform="translate(0.000000,512.000000) scale(0.100000,-0.100000)"
fill="#000000" stroke="none">
<path d="M2480 4867 c-49 -16 -133 -102 -148 -153 -9 -32 -12 -435 -12 -1735
l0 -1694 120 -120 120 -120 120 120 120 120 0 1694 c0 1279 -3 1703 -12 1733
-17 59 -88 133 -145 152 -53 18 -112 19 -163 3z"/>
<path d="M1040 2147 c-53 -17 -133 -102 -149 -160 -16 -55 -11 -118 13 -168 9
-20 335 -352 779 -795 815 -813 782 -784 879 -784 96 0 72 -22 889 798 817
818 789 787 789 882 0 124 -116 240 -240 240 -94 0 -72 20 -777 -684 l-663
-661 -662 661 c-572 570 -669 662 -704 672 -50 14 -107 14 -154 -1z"/>
</g>
</svg>
